<?xml version="1.0" encoding="utf-8"?>
<!-- Generator: Adobe Illustrator 24.3.0, SVG Export Plug-In . SVG Version: 6.00 Build 0)  -->
<svg version="1.1" id="Layer_2" xmlns="http://www.w3.org/2000/svg" xmlns:xlink="http://www.w3.org/1999/xlink" x="0px" y="0px"
	 viewBox="0 0 181 59" style="enable-background:new 0 0 181 59;" xml:space="preserve"
	width="181px"
	height="59px"
	 >
<style type="text/css">
	.st0{fill:none;}
	.st1{fill:#FFFFFF;stroke:#EAEAEA;stroke-width:1.5;}
	.st2{fill-rule:evenodd;clip-rule:evenodd;}
	.st3{fill-rule:evenodd;clip-rule:evenodd;fill:#F9AC00;}
</style>
<g>
	<rect x="1" y="1" class="st0" width="179" height="57"/>
	<g>
		<path class="st1" d="M1,6.1L1,6.1L1,6.1l0,46.6C1,55.7,3.3,58,6.2,58h168.5c2.9,0,5.2-2.3,5.2-5.2V6.3c0-2.9-2.3-5.3-5.2-5.3H6.2
			C3.4,1,1.1,3.4,1,6.1z"/>
		<path class="st2" d="M14,13.4l16.8,16.9l16.9-16.9v32.1h-6V28L30.8,38.9L20,28v17.6h-6V13.4z"/>
		<path class="st2" d="M151,17.4l4.7-4.6h-22.3v33.4h33.5V24l-4.7,4.6v13h-24.1V17.4H151z"/>
		<path d="M146.8,29.7L157.5,19l2.8,2.8l-10.9,10.9h8.2v4h-14.8v-15h4V29.7z"/>
		<path class="st3" d="M113.9,29.5l12.5,12.5l-4.2,4.2l-12.5-12.5L97.2,46.3L93,42.1l12.5-12.5L93,17l4.2-4.2l12.5,12.5l12.5-12.5
			l4.2,4.2L113.9,29.5z"/>
		<path d="M73.4,35.2V12.4h-6V35L59,26.6l-4.2,4.2l15.7,15.7L86,31.1l-4.2-4.2L73.4,35.2z"/>
	</g>
</g>
</svg>
