<svg xmlns="http://www.w3.org/2000/svg" width="179" height="57" viewBox="0 0 179 57">
  <rect x="0.75" y="0.75" width="177.5" height="55.5" rx="4.5" style="fill: #fff;stroke: #eaeaea;stroke-width: 1.5px"/>
  <g>
    <path d="M70.5,36.15V14" transform="translate(0 -0.15)" style="fill: none;stroke: #000;stroke-linecap: square;stroke-width: 6px"/>
    <path d="M57,27.39,70.61,41,84,27.59" transform="translate(0 -0.15)" style="fill: none;stroke: #000;stroke-width: 6px"/>
  </g>
  <path d="M16.45,44.08v-25L30.3,33,44.23,19V43.9" transform="translate(0 -0.15)" style="fill: none;stroke: #000;stroke-width: 6px"/>
  <path d="M122.44,42.42,93.17,13.15m0,29.27,29.27-29.27" transform="translate(0 -0.15)" style="fill: none;stroke: #f9ac00;stroke-width: 6px"/>
  <polygon points="149.25 15.52 153.87 10.89 131.63 10.89 131.63 44.33 165.06 44.33 165.06 22.09 160.43 26.71 160.43 39.7 136.26 39.7 136.26 15.52 149.25 15.52" style="fill-rule: evenodd"/>
  <g>
    <rect x="141.05" y="23.27" width="18.95" height="4.04" transform="translate(26.2 113.69) rotate(-45)"/>
    <polygon points="140.98 34.79 140.98 19.82 145.01 19.82 145.01 30.75 155.76 30.75 155.76 34.79 140.98 34.79"/>
  </g>
</svg>
