<?xml version="1.0" encoding="utf-8"?>
<!-- Generator: Adobe Illustrator 24.2.3, SVG Export Plug-In . SVG Version: 6.00 Build 0)  -->
<svg version="1.1" id="Layer_1" xmlns="http://www.w3.org/2000/svg" xmlns:xlink="http://www.w3.org/1999/xlink" x="0px" y="0px"
	 viewBox="0 0 179 57.3" style="enable-background:new 0 0 179 57.3;" xml:space="preserve">
<style type="text/css">
	.st0{fill:#FFFFFF;stroke:#EAEAEA;stroke-width:1.5;}
	.st1{fill:none;stroke:#000000;stroke-width:6;stroke-linecap:square;}
	.st2{fill:none;stroke:#000000;stroke-width:6;}
	.st3{fill-rule:evenodd;clip-rule:evenodd;}
	.st4{fill:none;stroke:#F9AC00;stroke-width:6;}
</style>
<g>
	<path class="st0" d="M5.2,1.1h168.5c2.5,0,4.5,2,4.5,4.5v46.5c0,2.5-2,4.5-4.5,4.5H5.2c-2.5,0-4.5-2-4.5-4.5V5.6
		C0.8,3.1,2.8,1.1,5.2,1.1z"/>
	<g>
		<path class="st1" d="M70.5,36.3V14.1"/>
		<path class="st2" d="M57,27.5l13.7,13.6l13.4-13.4"/>
	</g>
	<path class="st2" d="M16.5,44.2v-25l13.8,13.9l13.9-13.9v24.9"/>
	<path class="st3" d="M149.2,14.8l4.6-4.6h-20.2c-1.1,0-2,0.9-2,2.1v29.3c0,1.1,0.9,2.1,2.1,2.1H163c1.1,0,2.1-0.9,2.1-2.1V21.4
		l-4.6,4.6v13h-24.2V14.8H149.2z"/>
	<g>
		<rect x="140.7" y="22.7" transform="matrix(0.7071 -0.7071 0.7071 0.7071 26.5184 113.4227)" width="18.9" height="4"/>
		<polygon points="140.6,34.3 140.6,19.4 144.7,19.4 144.7,30.3 155.4,30.3 155.4,34.3 		"/>
	</g>
	<g>
		<path class="st4" d="M122.8,41.4L93.5,12.2 M93.5,41.4l29.3-29.3"/>
	</g>
</g>
</svg>
